OpenSim_Sub07_CSBaseline_RCS.mot
version=1
nRows=47
nColumns=11
inDegrees=no
endheader
time	Top_Thigh	Med_Thigh	Bot_Thigh	Top_Shank	2nd_Top_Shank	2nd_Bot_Shank	Bot_Shank	BNOx	BNOy	BNOZ
58.41000000	2042.95562879	1872.02930204	632.25644605	1141.14150404	1270.83539014	1090.70655760	1053.15761267	37.60819276	-69.30196115	95.80048971
58.42000000	2042.83012163	1865.99823431	736.93512099	1142.68735263	1270.02658547	1089.90984543	1055.12954226	30.74609212	-71.53865471	101.44989610
58.43000000	2042.65620782	1859.92125279	857.62546773	1143.27455986	1268.62576200	1088.86644532	1056.65626826	23.84384600	-73.85626242	107.42601358
58.44000000	2042.43462298	1853.88673582	987.67623987	1142.93221127	1266.68983306	1087.61605547	1057.75281958	17.77885770	-76.13944728	113.05141225
58.45000000	2042.16610269	1847.98306175	1120.43619105	1141.68939239	1264.27571199	1086.19837414	1058.43422512	13.42853053	-78.27287224	117.64866226
58.46000000	2041.85138258	1842.29860892	1249.25407487	1139.57518876	1261.44031213	1084.65309953	1058.71551380	11.67026778	-80.14120029	120.54033372
58.47000000	2041.49119824	1836.92175570	1367.47864495	1136.61868592	1258.24054681	1083.01992990	1058.61171453	13.38147277	-81.62909440	121.04899675
58.48000000	2041.08628529	1831.94088041	1468.45865490	1132.84896941	1254.73332937	1081.33856346	1058.13785621	19.43954878	-82.62121754	118.49722148
58.49000000	2040.63869700	1827.43513450	1546.32556001	1128.30641208	1250.97820071	1079.64713173	1057.31284307	30.58079852	-83.01787239	112.31128508
58.50000000	2040.16022508	1823.41547679	1600.99546997	1123.11480701	1247.05412111	1077.97218722	1056.18422047	46.49870291	-82.83494869	102.68392458
58.51000000	2039.66702602	1819.86230196	1634.97719370	1117.43533648	1243.04875465	1076.33509267	1054.81237074	66.41934711	-82.14014266	90.15140664
58.52000000	2039.17527691	1816.75586051	1650.79176984	1111.42935915	1239.04980648	1074.75718637	1053.25773681	89.56661156	-81.00139489	75.25161829
58.53000000	2038.70115484	1814.07640297	1650.96023703	1105.25823367	1235.14498174	1073.25980659	1051.58076159	115.16437672	-79.48664598	58.52244660
58.54000000	2038.26083688	1811.80417985	1638.00363391	1099.08331869	1231.42198557	1071.86429161	1049.84188798	142.43652304	-77.66383652	40.50177861
58.55000000	2037.87050014	1809.91944165	1614.44299914	1093.06597285	1227.96852312	1070.59197969	1048.10155891	170.60693096	-75.60090710	21.72750139
58.56000000	2037.54632169	1808.40243889	1582.79937133	1087.36755482	1224.87229953	1069.46420913	1046.42021728	198.89948094	-73.36579832	2.73750199
58.57000000	2037.30447861	1807.23342208	1545.59378914	1082.14942323	1222.22101994	1068.50231818	1044.85830600	226.53805342	-71.02645075	-15.93033254
58.58000000	2037.16114800	1806.39264173	1505.34729121	1077.57293674	1220.10238949	1067.72764514	1043.47626798	252.74652886	-68.65080501	-33.73811515
58.59000000	2037.13250694	1805.86034836	1464.58091617	1073.79945400	1218.60411334	1067.16152827	1042.33454614	276.74878771	-66.30680167	-50.14795877
58.60000000	2037.23473251	1805.61679247	1425.81570267	1070.99033367	1217.81389662	1066.82530584	1041.49358339	297.76871041	-64.06238134	-64.62197636
58.61000000	2037.48400180	1805.64222459	1391.57268935	1069.30693438	1217.81944448	1066.74031615	1041.01382264	315.03017743	-61.98548459	-76.62228086
58.62000000	2037.89649190	1805.91689521	1364.37291484	1068.91061479	1218.70846206	1066.92789745	1040.95570680	327.75706920	-60.14405204	-85.61098521
58.63000000	2038.47913826	1806.41901113	1346.36854373	1069.91569477	1220.52957430	1067.39386683	1041.36107035	335.33150580	-58.59850162	-91.15466335
58.64000000	2039.17057489	1807.11167478	1336.98553068	1072.08884809	1223.04257899	1068.02932993	1042.13421983	338.30509707	-57.35365428	-93.59192117
58.65000000	2039.87882292	1807.95121872	1334.42793501	1075.04093257	1225.87782073	1068.67397841	1043.11782135	337.75362159	-56.38941221	-93.60739159
58.66000000	2040.51175905	1808.89394363	1336.89405240	1078.38207102	1228.66503350	1069.16726143	1044.15425025	334.75533044	-55.68556008	-91.88733972
58.67000000	2040.97725999	1809.89615016	1342.58217851	1081.72238625	1231.03395127	1069.34862811	1045.08588189	330.38847473	-55.22188253	-89.11803069
58.68000000	2041.18320246	1810.91413896	1349.69060901	1084.67200107	1232.61430803	1069.05752761	1045.75509162	325.73130553	-54.97816423	-85.98572960
58.69000000	2041.03746317	1811.90421069	1356.41763956	1086.84103831	1233.03583776	1068.13340906	1046.00425479	321.86207393	-54.93418982	-83.17670158
58.70000000	2040.49541585	1812.84463330	1361.23177427	1087.93322200	1232.03300434	1066.47143343	1045.71886908	319.67841136	-55.07111796	-81.27235095
58.71000000	2039.76933512	1813.83249099	1364.06301500	1088.15854441	1229.90673270	1064.26809472	1045.01767129	319.10101752	-55.37753901	-80.28691330
58.72000000	2039.15795449	1815.00485507	1365.33322451	1087.89738028	1227.14858781	1061.82129927	1044.09789388	319.72180981	-55.84454441	-80.04374591
58.73000000	2038.96007264	1816.49882697	1365.46463624	1087.53023275	1224.25027830	1059.42902982	1043.15682845	321.13245788	-56.46322748	-80.36606226
58.74000000	2039.47448826	1818.45150814	1364.87948359	1087.43760495	1221.70351282	1057.38926915	1042.39176663	322.92463140	-57.22468157	-81.07707580
58.75000000	2041.00000000	1821.00000000	1364.00000000	1088.00000000	1220.00000000	1056.00000000	1042.00000000	324.69000000	-58.12000000	-82.00000000
58.76000000	2043.73279903	1824.22751891	1363.17627129	1089.49859802	1219.51249705	1055.48664093	1042.13547144	326.10107812	-59.13671599	-82.98698608
58.77000000	2047.45864642	1828.00174081	1362.46979294	1091.81728699	1220.13795549	1055.78435364	1042.77872883	327.15375928	-60.24812229	-84.00593627
58.78000000	2051.86069571	1832.13645658	1361.86991285	1094.74063187	1221.65437540	1056.75573562	1043.86697131	327.92478179	-61.42395154	-85.05369058
58.79000000	2056.62210046	1836.44545706	1361.36597890	1098.05319764	1223.83975687	1058.26338436	1045.33739801	328.49088395	-62.63393638	-86.12708899
58.80000000	2061.42601420	1840.74253311	1360.94733899	1101.53954924	1226.47209997	1060.16989735	1047.12720809	328.92880405	-63.84780946	-87.22297150
58.81000000	2065.95559049	1844.84147561	1360.60334100	1104.98425165	1229.32940481	1062.33787207	1049.17360068	329.31528041	-65.03530340	-88.33817811
58.82000000	2069.89398287	1848.55607539	1360.32333283	1108.17186983	1232.18967145	1064.62990602	1051.41377492	329.72705132	-66.16615085	-89.46954880
58.83000000	2072.92434489	1851.70012333	1360.09666237	1110.88696873	1234.83089999	1066.90859668	1053.78492996	330.24085508	-67.21008445	-90.61392358
58.84000000	2074.73999844	1854.09355368	1359.91296668	1112.91964500	1237.03658230	1069.03957185	1056.22499093	330.93063496	-68.13773888	-91.76785891
58.85000000	2075.26813718	1855.69759880	1359.76853367	1114.18722388	1238.71652119	1070.95815613	1058.68858112	331.80604838	-68.94049607	-92.92139006
58.86000000	2074.66982655	1856.61478919	1359.66630211	1114.73425922	1239.90683045	1072.66937095	1061.14702198	332.81246691	-69.63048514	-94.05803114
58.87000000	2073.11630034	1856.95379871	1359.60949992	1114.61083654	1240.64911565	1074.18126804	1063.57236094	333.89246708	-70.22073728	-95.16101272
